<svg width="466" height="147" viewBox="0 0 466 147" fill="none" xmlns="http://www.w3.org/2000/svg">
<path d="M147.036 23.1688C152.173 23.1688 156.777 24.303 160.846 26.5714C164.916 28.8398 168.085 32.0089 170.354 36.0787C172.689 40.1485 173.856 44.8522 173.856 50.1896C173.856 55.5271 172.689 60.2641 170.354 64.4006C168.085 68.4704 164.916 71.6395 160.846 73.9079C156.777 76.1763 152.173 77.3106 147.036 77.3106C143.233 77.3106 139.73 76.5767 136.528 75.1089C133.392 73.6411 130.723 71.5061 128.521 68.7039V96.1251H118.914V23.6691H128.121V32.0756C130.256 29.14 132.958 26.9383 136.227 25.4705C139.497 23.936 143.099 23.1688 147.036 23.1688ZM146.235 68.9041C149.638 68.9041 152.673 68.1368 155.342 66.6023C158.078 65.0011 160.213 62.7994 161.747 59.9972C163.348 57.1283 164.149 53.8591 164.149 50.1896C164.149 46.5201 163.348 43.2843 161.747 40.4821C160.213 37.6132 158.078 35.4115 155.342 33.877C152.673 32.3425 149.638 31.5752 146.235 31.5752C142.899 31.5752 139.864 32.3759 137.128 33.9771C134.459 35.5116 132.324 37.68 130.723 40.4821C129.189 43.2843 128.421 46.5201 128.421 50.1896C128.421 53.8591 129.189 57.1283 130.723 59.9972C132.258 62.7994 134.393 65.0011 137.128 66.6023C139.864 68.1368 142.899 68.9041 146.235 68.9041Z" fill="#282828"/>
<path d="M209.848 77.3106C204.578 77.3106 199.841 76.143 195.637 73.8079C191.434 71.4727 188.132 68.2702 185.73 64.2004C183.395 60.0639 182.227 55.3936 182.227 50.1896C182.227 44.9856 183.395 40.3487 185.73 36.2789C188.132 32.1423 191.434 28.9399 195.637 26.6715C199.841 24.3363 204.578 23.1688 209.848 23.1688C215.119 23.1688 219.823 24.3363 223.959 26.6715C228.162 28.9399 231.432 32.1423 233.767 36.2789C236.169 40.3487 237.37 44.9856 237.37 50.1896C237.37 55.3936 236.169 60.0639 233.767 64.2004C231.432 68.2702 228.162 71.4727 223.959 73.8079C219.823 76.143 215.119 77.3106 209.848 77.3106ZM209.848 68.9041C213.251 68.9041 216.287 68.1368 218.955 66.6023C221.691 65.0011 223.826 62.7994 225.36 59.9972C226.895 57.1283 227.662 53.8591 227.662 50.1896C227.662 46.5201 226.895 43.2843 225.36 40.4821C223.826 37.6132 221.691 35.4115 218.955 33.877C216.287 32.3425 213.251 31.5752 209.848 31.5752C206.446 31.5752 203.377 32.3425 200.641 33.877C197.972 35.4115 195.837 37.6132 194.236 40.4821C192.702 43.2843 191.934 46.5201 191.934 50.1896C191.934 53.8591 192.702 57.1283 194.236 59.9972C195.837 62.7994 197.972 65.0011 200.641 66.6023C203.377 68.1368 206.446 68.9041 209.848 68.9041Z" fill="#282828"/>
<path d="M266.769 77.3106C261.631 77.3106 257.662 75.9095 254.86 73.1073C252.057 70.2384 250.656 66.2353 250.656 61.098V2.45276H260.264V60.2974C260.264 63.1663 260.931 65.368 262.265 66.9025C263.666 68.437 265.735 69.2043 268.47 69.2043C270.138 69.2043 271.706 68.8707 273.174 68.2035L273.674 76.1096C271.472 76.9103 269.171 77.3106 266.769 77.3106Z" fill="#282828"/>
<path d="M332.248 23.6691V69.5045C332.248 78.7784 330.08 85.617 325.743 90.0204C321.407 94.4905 314.901 96.7256 306.228 96.7256C301.491 96.7256 296.954 96.025 292.618 94.6239C288.348 93.2896 284.845 91.3547 282.11 88.8194L286.813 81.4137C289.148 83.5487 291.95 85.2167 295.22 86.4176C298.556 87.6185 302.058 88.219 305.728 88.219C311.532 88.219 315.802 86.7512 318.538 83.8156C321.273 80.9467 322.641 76.5099 322.641 70.5053V66.6023C320.706 69.1376 318.204 71.1058 315.135 72.5069C312.066 73.8412 308.73 74.5084 305.127 74.5084C298.055 74.5084 292.484 72.5736 288.414 68.7039C284.345 64.8343 282.31 59.0965 282.31 51.4906V23.6691H291.917V50.3898C291.917 55.4604 293.151 59.33 295.62 61.9987C298.089 64.6008 301.625 65.9017 306.228 65.9017C311.299 65.9017 315.302 64.3672 318.237 61.2982C321.173 58.2292 322.641 53.8925 322.641 48.2882V23.6691H332.248Z" fill="#282828"/>
<path d="M366.651 77.3106C361.513 77.3106 357.544 75.9095 354.741 73.1073C351.939 70.2384 350.538 66.2353 350.538 61.098V2.45276H360.146V60.2974C360.146 63.1663 360.813 65.368 362.147 66.9025C363.548 68.437 365.616 69.2043 368.352 69.2043C370.02 69.2043 371.588 68.8707 373.056 68.2035L373.556 76.1096C371.354 76.9103 369.052 77.3106 366.651 77.3106Z" fill="#282828"/>
<path d="M382.692 23.6691H392.299V76.7101H382.692V23.6691ZM387.496 13.4613C385.627 13.4613 384.06 12.8608 382.792 11.6599C381.591 10.4589 380.991 8.99114 380.991 7.25647C380.991 5.52179 381.591 4.05399 382.792 2.85307C384.06 1.58542 385.627 0.951599 387.496 0.951599C389.364 0.951599 390.898 1.55206 392.099 2.75299C393.367 3.8872 394.001 5.32164 394.001 7.05631C394.001 8.8577 393.367 10.3922 392.099 11.6599C390.898 12.8608 389.364 13.4613 387.496 13.4613Z" fill="#282828"/>
<path d="M438.765 23.1688C443.902 23.1688 448.506 24.303 452.575 26.5714C456.645 28.8398 459.814 32.0089 462.083 36.0787C464.418 40.1485 465.586 44.8522 465.586 50.1896C465.586 55.5271 464.418 60.2641 462.083 64.4006C459.814 68.4704 456.645 71.6395 452.575 73.9079C448.506 76.1763 443.902 77.3106 438.765 77.3106C434.828 77.3106 431.226 76.5433 427.956 75.0088C424.687 73.4743 421.985 71.2392 419.85 68.3036V76.7101H410.643V2.45276H420.251V31.6753C422.386 28.8732 425.054 26.7715 428.257 25.3705C431.459 23.9027 434.962 23.1688 438.765 23.1688ZM437.964 68.9041C441.367 68.9041 444.403 68.1368 447.071 66.6023C449.807 65.0011 451.942 62.7994 453.476 59.9972C455.077 57.1283 455.878 53.8591 455.878 50.1896C455.878 46.5201 455.077 43.2843 453.476 40.4821C451.942 37.6132 449.807 35.4115 447.071 33.877C444.403 32.3425 441.367 31.5752 437.964 31.5752C434.628 31.5752 431.593 32.3425 428.857 33.877C426.122 35.4115 423.987 37.6132 422.452 40.4821C420.918 43.2843 420.15 46.5201 420.15 50.1896C420.15 53.8591 420.918 57.1283 422.452 59.9972C423.987 62.7994 426.122 65.0011 428.857 66.6023C431.593 68.1368 434.628 68.9041 437.964 68.9041Z" fill="#282828"/>
<path fill-rule="evenodd" clip-rule="evenodd" d="M4.25485 81.2701C2.03691 81.2701 0.238922 79.4721 0.238922 77.2542V58.5132C0.238922 56.2953 2.03691 54.4973 4.25485 54.4973H22.9958C25.2138 54.4973 27.0118 52.6993 27.0118 50.4813V4.96752C27.0118 2.74959 28.8097 0.951599 31.0277 0.951599H76.5415C78.7594 0.951599 80.5574 2.74959 80.5574 4.96752V50.4813C80.5574 52.6993 78.7594 54.4973 76.5415 54.4973H31.0277C28.8097 54.4973 27.0118 56.2953 27.0118 58.5132V77.2542C27.0118 79.4721 25.2138 81.2701 22.9958 81.2701H4.25485Z" fill="url(#paint0_linear_405_946)"/>
<path fill-rule="evenodd" clip-rule="evenodd" d="M114.898 146.639C117.116 146.639 118.914 144.841 118.914 142.623V123.882C118.914 121.664 117.116 119.866 114.898 119.866H96.1573C93.9394 119.866 92.1414 118.068 92.1414 115.85V70.3365C92.1414 68.1186 90.3434 66.3206 88.1255 66.3206H42.6117C40.3937 66.3206 38.5957 68.1186 38.5957 70.3365V115.85C38.5957 118.068 40.3937 119.866 42.6117 119.866H88.1255C90.3434 119.866 92.1414 121.664 92.1414 123.882V142.623C92.1414 144.841 93.9394 146.639 96.1573 146.639H114.898Z" fill="url(#paint1_linear_405_946)"/>
<defs>
<linearGradient id="paint0_linear_405_946" x1="80.5573" y1="0.951599" x2="0.238922" y2="81.27" gradientUnits="userSpaceOnUse">
<stop stop-color="#59DEA6"/>
<stop offset="1" stop-color="#30C1E2"/>
</linearGradient>
<linearGradient id="paint1_linear_405_946" x1="118.914" y1="146.639" x2="38.5957" y2="66.3206" gradientUnits="userSpaceOnUse">
<stop stop-color="#0F4F96"/>
<stop offset="1" stop-color="#3EC4EE"/>
</linearGradient>
</defs>
</svg>
